    <svg height="50px" viewBox="50 195 80 80" xmlns="http://www.w3.org/2000/svg">
      <path d="M104.0659,224.78274c0,-6.26314 -3.41883,-11.69566 -8.62235,-14.39115c11.78276,0 21.4705,9.55334 21.4705,21.3361c0,11.78218 -9.77023,21.55241 -21.55241,21.55241c-6.97263,0 -8.43892,-3.71878 -8.43892,-7.24605c0,-8.47295 17.14317,-5.35638 17.14317,-21.25131zM94.99075,223.96538c0,8.47295 -17.14317,5.35811 -17.14317,21.25304c0,6.26141 3.41941,11.69451 8.62292,14.39c-11.78276,0 -21.4705,-9.55219 -21.4705,-21.3361c0,-11.78218 9.77023,-21.55183 21.55356,-21.55183c6.97091,0 8.43719,3.71935 8.43719,7.24489z" data-paper-data="{&quot;isPathIcon&quot;:true}" id="path-id-66111" fill="#003e27"></path>
    </svg>