<svg viewBox="50 185 450 100" xmlns="http://www.w3.org/2000/svg">
      <path
        d="M175.33357,241.07116c2.97971,-2.45826 5.06551,-6.85333 5.06551,-14.67507c0,-18.77218 -12.51478,-17.20783 -18.77218,-17.20783c-2.75623,0 -5.51246,0.59594 -6.1829,0.74493h-0.07449v50.13363c0,0 3.1287,0.81942 6.25739,0.81942c12.51478,0 18.77218,-2.38377 18.77218,-11.02493c0,-4.17159 -1.56435,-7.00232 -5.06551,-8.79015zM174.14169,226.39609c0,10.95044 -6.25739,12.14232 -12.51478,12.14232v-23.53971c6.25739,0 12.51478,-0.37246 12.51478,11.39739zM161.6269,255.00131v-10.57797c11.76986,0 12.51478,3.1287 12.51478,5.43797c0,2.38377 -0.74493,5.14 -12.51478,5.14z"
        data-paper-data='{"glyphName":"b","glyphIndex":0,"firstGlyphOfWord":true,"word":1}'
        id="path-id-4919"
        fill="#003e27"
      ></path>
      <path
        d="M197.23445,208.96478c-10.28,0 -12.58928,12.58928 -12.58928,25.84899c0,13.33421 2.30928,25.84899 12.58928,25.84899c10.13102,0 12.44029,-11.69536 12.44029,-25.84899c0,-13.25971 -2.30928,-25.84899 -12.44029,-25.84899zM197.23445,255.22479c-5.58696,0 -6.33189,-10.95044 -6.33189,-20.41102c0,-9.38609 0.74493,-20.33653 6.33189,-20.33653c5.43797,0 6.1829,10.95044 6.1829,20.33653c0,9.46058 -0.74493,20.41102 -6.1829,20.41102z"
        data-paper-data='{"glyphName":"o","glyphIndex":1,"word":1}'
        id="path-id-13378"
        fill="#003e27"
      ></path>
      <path
        d="M226.5101,208.96478c-10.28,0 -12.58928,12.58928 -12.58928,25.84899c0,13.33421 2.30928,25.84899 12.58928,25.84899c10.13102,0 12.44029,-11.69536 12.44029,-25.84899c0,-13.25971 -2.30928,-25.84899 -12.44029,-25.84899zM226.5101,255.22479c-5.58696,0 -6.33189,-10.95044 -6.33189,-20.41102c0,-9.38609 0.74493,-20.33653 6.33189,-20.33653c5.43797,0 6.1829,10.95044 6.1829,20.33653c0,9.46058 -0.74493,20.41102 -6.1829,20.41102z"
        data-paper-data='{"glyphName":"o","glyphIndex":2,"word":1}'
        id="path-id-56139"
        fill="#003e27"
      ></path>
      <path
        d="M270.38634,259.99232h3.87362h1.56435l6.25739,-27.26435l6.25739,27.26435h1.56435h3.94812h0.74493l6.25739,-37.54435h-6.25739l-3.20319,26.59392l-6.25739,-26.59392h-0.67043h-4.69304h-0.81942l-6.10841,26.59392l-3.27768,-26.59392h-6.25739l6.25739,37.54435zM300.85388,209.93318h-44.09972h-6.33189h-9.3116v5.88493h9.3116v44.2487h6.33189v-44.2487h44.09972z"
        data-paper-data='{"glyphName":"special;Tw","glyphIndex":3,"word":1}'
        id="path-id-48099"
        fill="#003e27"
      ></path>
      <path d="M311.28287,260.06682v-50.13363h-6.25739v50.13363z" data-paper-data='{"glyphName":"i","glyphIndex":4,"word":1}' id="path-id-56883" fill="#00dc82"></path>
      <path
        d="M335.41853,209.93318l0.52145,32.47885c-5.58696,-11.62087 -13.03623,-24.58261 -13.03623,-32.47885h-6.33189v50.13363h6.33189l-0.52145,-32.47885c5.51246,11.54638 13.03623,24.58261 13.03623,32.47885h6.25739v-50.13363z"
        data-paper-data='{"glyphName":"n","glyphIndex":5,"word":1}'
        id="path-id-14475"
        fill="#00dc82"
      ></path>
      <path
        d="M353.59476,209.11376c-3.20319,0 -6.33189,0.81942 -6.33189,0.81942v50.13363c0,0 3.1287,0.81942 6.33189,0.81942c3.0542,0 18.69768,-0.81942 18.69768,-25.92348c0,-25.02957 -15.64348,-25.84899 -18.69768,-25.84899zM353.59476,255.00131v-40.00262c3.0542,0 12.44029,1.19188 12.44029,19.96406c0,18.84667 -9.38609,20.03855 -12.44029,20.03855z"
        data-paper-data='{"glyphName":"d","glyphIndex":6,"word":1}'
        id="path-id-70315"
        fill="#00dc82"
      ></path>
      <path
        d="M400.37622,224.1613c0,-6.33189 0,-14.97305 -12.58928,-14.97305c-10.20551,0 -11.69536,9.38609 -11.69536,11.69536c0,19.44261 18.02725,18.99566 18.02725,29.20116c0,3.1287 -2.30928,5.51246 -5.51246,5.51246c-2.38377,0 -5.51246,-0.74493 -5.51246,-7.97073h-6.25739c0,7.97073 3.0542,13.4087 11.76986,13.4087c11.02493,0 11.76986,-8.64116 11.76986,-10.95044c0,-15.27102 -17.87826,-13.78116 -17.87826,-29.20116c0,-4.69304 3.72464,-6.25739 5.28899,-6.25739c5.51246,0 6.33189,3.20319 6.33189,9.53507z"
        data-paper-data='{"glyphName":"s","glyphIndex":7,"word":1}'
        id="path-id-22631"
        fill="#00dc82"
      ></path>
      <path
        d="M423.46898,247.55203c-0.74493,5.28899 -2.97971,7.82174 -6.33189,7.82174c-5.58696,0 -6.33189,-10.95044 -6.33189,-20.41102c0,-9.38609 0.74493,-20.33653 6.33189,-20.33653c5.43797,0 6.25739,10.95044 6.25739,20.33653h6.25739c0,-13.33421 -2.38377,-25.84899 -12.51478,-25.84899c-10.28,0 -12.58928,12.51478 -12.58928,25.84899c0,13.4087 2.30928,25.92348 12.58928,25.92348c7.37478,0 11.24841,-4.69304 12.51478,-13.33421z"
        data-paper-data='{"glyphName":"c","glyphIndex":8,"word":1}'
        id="path-id-15076"
        fill="#00dc82"
      ></path>
      <path
        d="M457.88463,224.1613c0,-6.33189 0,-14.97305 -12.58928,-14.97305c-10.20551,0 -11.69536,9.38609 -11.69536,11.69536c0,19.44261 18.02725,18.99566 18.02725,29.20116c0,3.1287 -2.30928,5.51246 -5.51246,5.51246c-2.38377,0 -5.51246,-0.74493 -5.51246,-7.97073h-6.25739c0,7.97073 3.0542,13.4087 11.76986,13.4087c11.02493,0 11.76986,-8.64116 11.76986,-10.95044c0,-15.27102 -17.87826,-13.78116 -17.87826,-29.20116c0,-4.69304 3.72464,-6.25739 5.28899,-6.25739c5.51246,0 6.33189,3.20319 6.33189,9.53507z"
        data-paper-data='{"glyphName":"s","glyphIndex":9,"word":1}'
        id="path-id-36428"
        fill="#00dc82"
      ></path>
      <path
        d="M485,224.1613c0,-6.33189 0,-14.97305 -12.58928,-14.97305c-10.20551,0 -11.69536,9.38609 -11.69536,11.69536c0,19.44261 18.02725,18.99566 18.02725,29.20116c0,3.1287 -2.30928,5.51246 -5.51246,5.51246c-2.38377,0 -5.51246,-0.74493 -5.51246,-7.97073h-6.25739c0,7.97073 3.0542,13.4087 11.76986,13.4087c11.02493,0 11.76986,-8.64116 11.76986,-10.95044c0,-15.27102 -17.87826,-13.78116 -17.87826,-29.20116c0,-4.69304 3.72464,-6.25739 5.28899,-6.25739c5.51246,0 6.33189,3.20319 6.33189,9.53507z"
        data-paper-data='{"glyphName":"s","glyphIndex":10,"lastGlyphOfWord":true,"word":1}'
        id="path-id-10966"
        fill="#00dc82"
      ></path>
      <path
        d="M104.0659,224.78274c0,-6.26314 -3.41883,-11.69566 -8.62235,-14.39115c11.78276,0 21.4705,9.55334 21.4705,21.3361c0,11.78218 -9.77023,21.55241 -21.55241,21.55241c-6.97263,0 -8.43892,-3.71878 -8.43892,-7.24605c0,-8.47295 17.14317,-5.35638 17.14317,-21.25131zM94.99075,223.96538c0,8.47295 -17.14317,5.35811 -17.14317,21.25304c0,6.26141 3.41941,11.69451 8.62292,14.39c-11.78276,0 -21.4705,-9.55219 -21.4705,-21.3361c0,-11.78218 9.77023,-21.55183 21.55356,-21.55183c6.97091,0 8.43719,3.71935 8.43719,7.24489z"
        data-paper-data='{"isPathIcon":true}'
        id="path-id-66111"
        fill="#003e27"
      ></path>
      <path d="M132.29624,261.03522v-52.07044h1.19866v52.07044z" data-paper-data='{"isShapeTextSeparator":true}' fill-rule="nonzero" id="path-id-71364" fill="#003e27"></path>
    </svg>